{
	"asset":{
		"generator":"Khronos glTF Blender I/O v4.2.70",
		"version":"2.0"
	},
	"scene":0,
	"scenes":[
		{
			"name":"Scene",
			"nodes":[
				0
			]
		}
	],
	"nodes":[
		{
			"mesh":0,
			"name":"WallShelf4_WallShelf4_0",
			"rotation":[
				-0.706662654876709,
				0,
				0,
				0.7075506448745728
			],
			"scale":[
				0.3667616844177246,
				0.3667617440223694,
				0.3667617440223694
			]
		}
	],
	"meshes":[
		{
			"name":"WallShelf4_WallShelf4_0",
			"primitives":[
				{
					"attributes":{
						"POSITION":0,
						"NORMAL":1,
						"TEXCOORD_0":2,
						"TEXCOORD_1":3,
						"TEXCOORD_2":4
					},
					"indices":5
				}
			]
		}
	],
	"accessors":[
		{
			"bufferView":0,
			"componentType":5126,
			"count":137,
			"max":[
				7.688957214355469,
				3.041935682296753,
				8.745137214660645
			],
			"min":[
				-7.688958168029785,
				-3.2051031589508057,
				-8.73990535736084
			],
			"type":"VEC3"
		},
		{
			"bufferView":1,
			"componentType":5126,
			"count":137,
			"type":"VEC3"
		},
		{
			"bufferView":2,
			"componentType":5126,
			"count":137,
			"type":"VEC2"
		},
		{
			"bufferView":3,
			"componentType":5126,
			"count":137,
			"type":"VEC2"
		},
		{
			"bufferView":4,
			"componentType":5126,
			"count":137,
			"type":"VEC2"
		},
		{
			"bufferView":5,
			"componentType":5123,
			"count":243,
			"type":"SCALAR"
		}
	],
	"bufferViews":[
		{
			"buffer":0,
			"byteLength":1644,
			"byteOffset":0,
			"target":34962
		},
		{
			"buffer":0,
			"byteLength":1644,
			"byteOffset":1644,
			"target":34962
		},
		{
			"buffer":0,
			"byteLength":1096,
			"byteOffset":3288,
			"target":34962
		},
		{
			"buffer":0,
			"byteLength":1096,
			"byteOffset":4384,
			"target":34962
		},
		{
			"buffer":0,
			"byteLength":1096,
			"byteOffset":5480,
			"target":34962
		},
		{
			"buffer":0,
			"byteLength":486,
			"byteOffset":6576,
			"target":34963
		}
	],
	"buffers":[
		{
			"byteLength":7064,
			"uri":"untitled.bin"
		}
	]
}
