{
	"asset":{
		"generator":"Khronos glTF Blender I/O v4.2.70",
		"version":"2.0"
	},
	"scene":0,
	"scenes":[
		{
			"name":"Scene",
			"nodes":[
				0
			]
		}
	],
	"nodes":[
		{
			"mesh":0,
			"name":"WallShelf4_WallShelf4_0",
			"rotation":[
				-0.706662654876709,
				0,
				0,
				0.7075506448745728
			],
			"scale":[
				0.3667616844177246,
				0.3667617440223694,
				0.3667617440223694
			]
		}
	],
	"materials":[
		{
			"name":"WallShelf4",
			"normalTexture":{
				"index":0
			},
			"occlusionTexture":{
				"index":1
			},
			"pbrMetallicRoughness":{
				"baseColorTexture":{
					"index":2
				},
				"metallicRoughnessTexture":{
					"index":1
				}
			}
		}
	],
	"meshes":[
		{
			"name":"WallShelf4_WallShelf4_0",
			"primitives":[
				{
					"attributes":{
						"POSITION":0,
						"NORMAL":1,
						"TEXCOORD_0":2,
						"TEXCOORD_1":3,
						"TEXCOORD_2":4
					},
					"indices":5,
					"material":0
				}
			]
		}
	],
	"textures":[
		{
			"sampler":0,
			"source":0
		},
		{
			"sampler":0,
			"source":1
		},
		{
			"sampler":0,
			"source":2
		}
	],
	"images":[
		{
			"mimeType":"image/png",
			"name":"WallShelf4_normal",
			"uri":"textures/WallShelf4_normal.png"
		},
		{
			"mimeType":"image/png",
			"name":"WallShelf4_metallicRoughness",
			"uri":"textures/WallShelf4_metallicRoughness.png"
		},
		{
			"mimeType":"image/png",
			"name":"WallShelf4_baseColor",
			"uri":"textures/WallShelf4_baseColor.png"
		}
	],
	"accessors":[
		{
			"bufferView":0,
			"componentType":5126,
			"count":364,
			"max":[
				7.666988372802734,
				3.041935443878174,
				8.773959159851074
			],
			"min":[
				-7.6669921875,
				-3.259730815887451,
				-8.7724609375
			],
			"type":"VEC3"
		},
		{
			"bufferView":1,
			"componentType":5126,
			"count":364,
			"type":"VEC3"
		},
		{
			"bufferView":2,
			"componentType":5126,
			"count":364,
			"type":"VEC2"
		},
		{
			"bufferView":3,
			"componentType":5126,
			"count":364,
			"type":"VEC2"
		},
		{
			"bufferView":4,
			"componentType":5126,
			"count":364,
			"type":"VEC2"
		},
		{
			"bufferView":5,
			"componentType":5123,
			"count":1056,
			"type":"SCALAR"
		}
	],
	"bufferViews":[
		{
			"buffer":0,
			"byteLength":4368,
			"byteOffset":0,
			"target":34962
		},
		{
			"buffer":0,
			"byteLength":4368,
			"byteOffset":4368,
			"target":34962
		},
		{
			"buffer":0,
			"byteLength":2912,
			"byteOffset":8736,
			"target":34962
		},
		{
			"buffer":0,
			"byteLength":2912,
			"byteOffset":11648,
			"target":34962
		},
		{
			"buffer":0,
			"byteLength":2912,
			"byteOffset":14560,
			"target":34962
		},
		{
			"buffer":0,
			"byteLength":2112,
			"byteOffset":17472,
			"target":34963
		}
	],
	"samplers":[
		{
			"magFilter":9729,
			"minFilter":9987
		}
	],
	"buffers":[
		{
			"byteLength":19584,
			"uri":"untitled.bin"
		}
	]
}
