{
	"asset":{
		"generator":"Khronos glTF Blender I/O v4.2.69",
		"version":"2.0"
	},
	"scene":0,
	"scenes":[
		{
			"name":"Scene",
			"nodes":[
				0
			]
		}
	],
	"nodes":[
		{
			"mesh":0,
			"name":"dartboard"
		}
	],
	"materials":[
		{
			"doubleSided":true,
			"name":"dartboard",
			"normalTexture":{
				"index":0
			},
			"pbrMetallicRoughness":{
				"baseColorTexture":{
					"index":1
				},
				"metallicRoughnessTexture":{
					"index":2
				}
			}
		}
	],
	"meshes":[
		{
			"name":"Circle.002",
			"primitives":[
				{
					"attributes":{
						"POSITION":0,
						"NORMAL":1,
						"TEXCOORD_0":2
					},
					"indices":3,
					"material":0
				}
			]
		}
	],
	"textures":[
		{
			"sampler":0,
			"source":0
		},
		{
			"sampler":0,
			"source":1
		},
		{
			"sampler":0,
			"source":2
		}
	],
	"images":[
		{
			"mimeType":"image/jpeg",
			"name":"dartboard_nor_gl_1k",
			"uri":"dartboard_nor_gl_1k.jpg"
		},
		{
			"mimeType":"image/jpeg",
			"name":"dartboard_diff_1k",
			"uri":"dartboard_diff_1k.jpg"
		},
		{
			"mimeType":"image/jpeg",
			"name":"dartboard_arm_1k",
			"uri":"dartboard_arm_1k.jpg"
		}
	],
	"accessors":[
		{
			"bufferView":0,
			"componentType":5126,
			"count":1795,
			"max":[
				0.225348100066185,
				0.2253481149673462,
				0.039905186742544174
			],
			"min":[
				-0.22534814476966858,
				-0.225348100066185,
				-2.445899269787333e-07
			],
			"type":"VEC3"
		},
		{
			"bufferView":1,
			"componentType":5126,
			"count":1795,
			"type":"VEC3"
		},
		{
			"bufferView":2,
			"componentType":5126,
			"count":1795,
			"type":"VEC2"
		},
		{
			"bufferView":3,
			"componentType":5123,
			"count":5283,
			"type":"SCALAR"
		}
	],
	"bufferViews":[
		{
			"buffer":0,
			"byteLength":21540,
			"byteOffset":0,
			"target":34962
		},
		{
			"buffer":0,
			"byteLength":21540,
			"byteOffset":21540,
			"target":34962
		},
		{
			"buffer":0,
			"byteLength":14360,
			"byteOffset":43080,
			"target":34962
		},
		{
			"buffer":0,
			"byteLength":10566,
			"byteOffset":57440,
			"target":34963
		}
	],
	"samplers":[
		{
			"magFilter":9729,
			"minFilter":9987
		}
	],
	"buffers":[
		{
			"byteLength":68008,
			"uri":"dartboard.bin"
		}
	]
}
