{
	"asset":{
		"generator":"Khronos glTF Blender I/O v4.2.69",
		"version":"2.0"
	},
	"scene":0,
	"scenes":[
		{
			"name":"Scene",
			"nodes":[
				0
			]
		}
	],
	"nodes":[
		{
			"mesh":0,
			"name":"Ottoman_01"
		}
	],
	"materials":[
		{
			"doubleSided":true,
			"name":"Ottoman_01",
			"normalTexture":{
				"index":0
			},
			"pbrMetallicRoughness":{
				"baseColorTexture":{
					"index":1
				},
				"metallicRoughnessTexture":{
					"index":2
				}
			}
		}
	],
	"meshes":[
		{
			"name":"Mesh",
			"primitives":[
				{
					"attributes":{
						"POSITION":0,
						"NORMAL":1,
						"TEXCOORD_0":2
					},
					"indices":3,
					"material":0
				}
			]
		}
	],
	"textures":[
		{
			"sampler":0,
			"source":0
		},
		{
			"sampler":0,
			"source":1
		},
		{
			"sampler":0,
			"source":2
		}
	],
	"images":[
		{
			"mimeType":"image/jpeg",
			"name":"Ottoman_01_nor_gl_1k",
			"uri":"textures/Ottoman_01_nor_gl_1k.jpg"
		},
		{
			"mimeType":"image/jpeg",
			"name":"Ottoman_01_diff_1k",
			"uri":"textures/Ottoman_01_diff_1k.jpg"
		},
		{
			"mimeType":"image/jpeg",
			"name":"Ottoman_01_arm_1k",
			"uri":"textures/Ottoman_01_arm_1k.jpg"
		}
	],
	"accessors":[
		{
			"bufferView":0,
			"componentType":5126,
			"count":1414,
			"max":[
				0.4442704916000366,
				0.6238552331924438,
				0.3111821413040161
			],
			"min":[
				-0.4396570920944214,
				-3.309562089270912e-05,
				-0.3096575140953064
			],
			"type":"VEC3"
		},
		{
			"bufferView":1,
			"componentType":5126,
			"count":1414,
			"type":"VEC3"
		},
		{
			"bufferView":2,
			"componentType":5126,
			"count":1414,
			"type":"VEC2"
		},
		{
			"bufferView":3,
			"componentType":5123,
			"count":5211,
			"type":"SCALAR"
		}
	],
	"bufferViews":[
		{
			"buffer":0,
			"byteLength":16968,
			"byteOffset":0,
			"target":34962
		},
		{
			"buffer":0,
			"byteLength":16968,
			"byteOffset":16968,
			"target":34962
		},
		{
			"buffer":0,
			"byteLength":11312,
			"byteOffset":33936,
			"target":34962
		},
		{
			"buffer":0,
			"byteLength":10422,
			"byteOffset":45248,
			"target":34963
		}
	],
	"samplers":[
		{
			"magFilter":9729,
			"minFilter":9987
		}
	],
	"buffers":[
		{
			"byteLength":55672,
			"uri":"otoman.bin"
		}
	]
}
