{
	"asset":{
		"generator":"Khronos glTF Blender I/O v4.2.70",
		"version":"2.0"
	},
	"scene":0,
	"scenes":[
		{
			"name":"Scene",
			"nodes":[
				1
			]
		}
	],
	"nodes":[
		{
			"mesh":0,
			"name":"MONSTERA_Defintion"
		},
		{
			"children":[
				0
			],
			"mesh":1,
			"name":"TABLE_Defintion"
		}
	],
	"materials":[
		{
			"doubleSided":true,
			"name":"02 - DefaultW",
			"pbrMetallicRoughness":{
				"baseColorFactor":[
					0.35546875,
					0.4609375,
					0.11328125,
					1
				],
				"metallicFactor":0,
				"roughnessFactor":0.375
			}
		},
		{
			"doubleSided":true,
			"name":"06 - Default.001",
			"pbrMetallicRoughness":{
				"baseColorFactor":[
					0.1379060447216034,
					0.031144054606556892,
					0.011119781993329525,
					1
				],
				"metallicFactor":0,
				"roughnessFactor":0.5
			}
		},
		{
			"doubleSided":true,
			"name":"02 - Default.001",
			"normalTexture":{
				"index":0
			},
			"pbrMetallicRoughness":{
				"baseColorTexture":{
					"index":1
				},
				"metallicFactor":0,
				"roughnessFactor":0.36666667461395264
			}
		},
		{
			"doubleSided":true,
			"name":"04 - Default.001",
			"pbrMetallicRoughness":{
				"baseColorFactor":[
					0.024733511731028557,
					0.024733511731028557,
					0.024733511731028557,
					1
				],
				"metallicFactor":0,
				"roughnessFactor":0.25833332538604736
			}
		},
		{
			"doubleSided":true,
			"name":"04 - DefaultW.001",
			"pbrMetallicRoughness":{
				"baseColorTexture":{
					"index":2
				},
				"metallicFactor":0,
				"roughnessFactor":0.5
			}
		}
	],
	"meshes":[
		{
			"name":"MONSTERA_Defintion",
			"primitives":[
				{
					"attributes":{
						"POSITION":0,
						"NORMAL":1
					},
					"indices":2,
					"material":0
				}
			]
		},
		{
			"name":"TABLE_Defintion.001",
			"primitives":[
				{
					"attributes":{
						"POSITION":3,
						"NORMAL":4,
						"TEXCOORD_0":5
					},
					"indices":6,
					"material":1
				},
				{
					"attributes":{
						"POSITION":7,
						"NORMAL":8,
						"TEXCOORD_0":9
					},
					"indices":10,
					"material":2
				},
				{
					"attributes":{
						"POSITION":11,
						"NORMAL":12,
						"TEXCOORD_0":13
					},
					"indices":14,
					"material":3
				},
				{
					"attributes":{
						"POSITION":15,
						"NORMAL":16,
						"TEXCOORD_0":17
					},
					"indices":18,
					"material":4
				}
			]
		}
	],
	"textures":[
		{
			"sampler":0,
			"source":0
		},
		{
			"sampler":0,
			"source":0
		},
		{
			"sampler":0,
			"source":1
		}
	],
	"images":[
		{
			"mimeType":"image/jpeg",
			"name":"monstera",
			"uri":"textures/monstera.jpg"
		},
		{
			"mimeType":"image/jpeg",
			"name":"023",
			"uri":"textures/023.jpg"
		}
	],
	"accessors":[
		{
			"bufferView":0,
			"componentType":5126,
			"count":49,
			"max":[
				0.01834469474852085,
				0.3478673994541168,
				0.03467654809355736
			],
			"min":[
				-0.03797213360667229,
				0.11326506733894348,
				-0.019774211570620537
			],
			"type":"VEC3"
		},
		{
			"bufferView":1,
			"componentType":5126,
			"count":49,
			"type":"VEC3"
		},
		{
			"bufferView":2,
			"componentType":5123,
			"count":282,
			"type":"SCALAR"
		},
		{
			"bufferView":3,
			"componentType":5126,
			"count":354,
			"max":[
				0.16727155447006226,
				0.02179908938705921,
				0.18105073273181915
			],
			"min":[
				-0.15478093922138214,
				-0.003131140721961856,
				-0.12309028208255768
			],
			"type":"VEC3"
		},
		{
			"bufferView":4,
			"componentType":5126,
			"count":354,
			"type":"VEC3"
		},
		{
			"bufferView":5,
			"componentType":5126,
			"count":354,
			"type":"VEC2"
		},
		{
			"bufferView":6,
			"componentType":5123,
			"count":354,
			"type":"SCALAR"
		},
		{
			"bufferView":7,
			"componentType":5126,
			"count":4631,
			"max":[
				0.3984558880329132,
				0.7643635869026184,
				0.3154631555080414
			],
			"min":[
				-0.42648085951805115,
				0.13636994361877441,
				-0.3197244107723236
			],
			"type":"VEC3"
		},
		{
			"bufferView":8,
			"componentType":5126,
			"count":4631,
			"type":"VEC3"
		},
		{
			"bufferView":9,
			"componentType":5126,
			"count":4631,
			"type":"VEC2"
		},
		{
			"bufferView":10,
			"componentType":5123,
			"count":10359,
			"type":"SCALAR"
		},
		{
			"bufferView":11,
			"componentType":5126,
			"count":102,
			"max":[
				0.07997248321771622,
				0.19558849930763245,
				0.09695041924715042
			],
			"min":[
				-0.09931714087724686,
				0.019493240863084793,
				-0.07943490147590637
			],
			"type":"VEC3"
		},
		{
			"bufferView":12,
			"componentType":5126,
			"count":102,
			"type":"VEC3"
		},
		{
			"bufferView":13,
			"componentType":5126,
			"count":102,
			"type":"VEC2"
		},
		{
			"bufferView":14,
			"componentType":5123,
			"count":600,
			"type":"SCALAR"
		},
		{
			"bufferView":15,
			"componentType":5126,
			"count":672,
			"max":[
				0.1690756231546402,
				0.019999993965029716,
				0.18251875042915344
			],
			"min":[
				-0.15140998363494873,
				-0.2256338894367218,
				-0.11885957419872284
			],
			"type":"VEC3"
		},
		{
			"bufferView":16,
			"componentType":5126,
			"count":672,
			"type":"VEC3"
		},
		{
			"bufferView":17,
			"componentType":5126,
			"count":672,
			"type":"VEC2"
		},
		{
			"bufferView":18,
			"componentType":5123,
			"count":696,
			"type":"SCALAR"
		}
	],
	"bufferViews":[
		{
			"buffer":0,
			"byteLength":588,
			"byteOffset":0,
			"target":34962
		},
		{
			"buffer":0,
			"byteLength":588,
			"byteOffset":588,
			"target":34962
		},
		{
			"buffer":0,
			"byteLength":564,
			"byteOffset":1176,
			"target":34963
		},
		{
			"buffer":0,
			"byteLength":4248,
			"byteOffset":1740,
			"target":34962
		},
		{
			"buffer":0,
			"byteLength":4248,
			"byteOffset":5988,
			"target":34962
		},
		{
			"buffer":0,
			"byteLength":2832,
			"byteOffset":10236,
			"target":34962
		},
		{
			"buffer":0,
			"byteLength":708,
			"byteOffset":13068,
			"target":34963
		},
		{
			"buffer":0,
			"byteLength":55572,
			"byteOffset":13776,
			"target":34962
		},
		{
			"buffer":0,
			"byteLength":55572,
			"byteOffset":69348,
			"target":34962
		},
		{
			"buffer":0,
			"byteLength":37048,
			"byteOffset":124920,
			"target":34962
		},
		{
			"buffer":0,
			"byteLength":20718,
			"byteOffset":161968,
			"target":34963
		},
		{
			"buffer":0,
			"byteLength":1224,
			"byteOffset":182688,
			"target":34962
		},
		{
			"buffer":0,
			"byteLength":1224,
			"byteOffset":183912,
			"target":34962
		},
		{
			"buffer":0,
			"byteLength":816,
			"byteOffset":185136,
			"target":34962
		},
		{
			"buffer":0,
			"byteLength":1200,
			"byteOffset":185952,
			"target":34963
		},
		{
			"buffer":0,
			"byteLength":8064,
			"byteOffset":187152,
			"target":34962
		},
		{
			"buffer":0,
			"byteLength":8064,
			"byteOffset":195216,
			"target":34962
		},
		{
			"buffer":0,
			"byteLength":5376,
			"byteOffset":203280,
			"target":34962
		},
		{
			"buffer":0,
			"byteLength":1392,
			"byteOffset":208656,
			"target":34963
		}
	],
	"samplers":[
		{
			"magFilter":9729,
			"minFilter":9987
		}
	],
	"buffers":[
		{
			"byteLength":210048,
			"uri":"plant1.bin"
		}
	]
}
