{
	"asset":{
		"generator":"Khronos glTF Blender I/O v4.2.70",
		"version":"2.0"
	},
	"scene":0,
	"scenes":[
		{
			"name":"Scene",
			"nodes":[
				0
			]
		}
	],
	"nodes":[
		{
			"mesh":0,
			"name":"Vinyl",
			"rotation":[
				0,
				0.9668749570846558,
				0,
				0.2552509009838104
			],
			"scale":[
				2.252750873565674,
				2.252750873565674,
				2.252750873565674
			]
		}
	],
	"materials":[
		{
			"doubleSided":true,
			"name":"Vinyl",
			"normalTexture":{
				"index":0,
				"scale":0.699999988079071
			},
			"pbrMetallicRoughness":{
				"baseColorTexture":{
					"index":1
				},
				"metallicFactor":0,
				"metallicRoughnessTexture":{
					"index":2
				}
			}
		}
	],
	"meshes":[
		{
			"name":"Circle",
			"primitives":[
				{
					"attributes":{
						"POSITION":0,
						"NORMAL":1,
						"TEXCOORD_0":2,
						"COLOR_0":3,
						"COLOR_1":4
					},
					"indices":5,
					"material":0
				}
			]
		}
	],
	"textures":[
		{
			"sampler":0,
			"source":0
		},
		{
			"sampler":0,
			"source":1
		},
		{
			"sampler":0,
			"source":2
		}
	],
	"images":[
		{
			"mimeType":"image/png",
			"name":"Vinyl_DefaultMaterial_Normal",
			"uri":"textures/Vinyl_DefaultMaterial_Normal.png"
		},
		{
			"mimeType":"image/png",
			"name":"Vinyl_DefaultMaterial_BaseColor",
			"uri":"textures/Vinyl_DefaultMaterial_BaseColor.png"
		},
		{
			"mimeType":"image/png",
			"name":"Vinyl_DefaultMaterial_Roughness",
			"uri":"textures/Vinyl_DefaultMaterial_Roughness.png"
		}
	],
	"accessors":[
		{
			"bufferView":0,
			"componentType":5126,
			"count":2592,
			"max":[
				0.9998119473457336,
				0.009246479719877243,
				0.9992479681968689
			],
			"min":[
				-0.9998119473457336,
				0,
				-1
			],
			"type":"VEC3"
		},
		{
			"bufferView":1,
			"componentType":5126,
			"count":2592,
			"type":"VEC3"
		},
		{
			"bufferView":2,
			"componentType":5126,
			"count":2592,
			"type":"VEC2"
		},
		{
			"bufferView":3,
			"componentType":5121,
			"count":2592,
			"normalized":true,
			"type":"VEC4"
		},
		{
			"bufferView":4,
			"componentType":5126,
			"count":2592,
			"type":"VEC3"
		},
		{
			"bufferView":5,
			"componentType":5123,
			"count":11664,
			"type":"SCALAR"
		}
	],
	"bufferViews":[
		{
			"buffer":0,
			"byteLength":31104,
			"byteOffset":0,
			"target":34962
		},
		{
			"buffer":0,
			"byteLength":31104,
			"byteOffset":31104,
			"target":34962
		},
		{
			"buffer":0,
			"byteLength":20736,
			"byteOffset":62208,
			"target":34962
		},
		{
			"buffer":0,
			"byteLength":10368,
			"byteOffset":82944,
			"target":34962
		},
		{
			"buffer":0,
			"byteLength":31104,
			"byteOffset":93312,
			"target":34962
		},
		{
			"buffer":0,
			"byteLength":23328,
			"byteOffset":124416,
			"target":34963
		}
	],
	"samplers":[
		{
			"magFilter":9729,
			"minFilter":9987
		}
	],
	"buffers":[
		{
			"byteLength":147744,
			"uri":"vinyl.bin"
		}
	]
}
