{
	"asset":{
		"generator":"Khronos glTF Blender I/O v4.2.70",
		"version":"2.0"
	},
	"scene":0,
	"scenes":[
		{
			"name":"Scene",
			"nodes":[
				3
			]
		}
	],
	"nodes":[
		{
			"mesh":0,
			"name":"focus\n"
		},
		{
			"mesh":1,
			"name":"screen"
		},
		{
			"mesh":2,
			"name":"support-lamp"
		},
		{
			"children":[
				0,
				1,
				2
			],
			"name":"pendant-lamp-002",
			"rotation":[
				0.70710688829422,
				0,
				0,
				0.7071066498756409
			],
			"scale":[
				0.009999999776482582,
				0.009999996051192284,
				0.009999996051192284
			]
		}
	],
	"materials":[
		{
			"doubleSided":true,
			"name":"Material",
			"pbrMetallicRoughness":{
				"baseColorFactor":[
					0.800000011920929,
					0.800000011920929,
					0.800000011920929,
					1
				],
				"metallicFactor":0,
				"roughnessFactor":0.5
			}
		},
		{
			"doubleSided":true,
			"name":"Default",
			"pbrMetallicRoughness":{
				"baseColorFactor":[
					0.38999998569488525,
					0.6299999952316284,
					0.7099999785423279,
					1
				],
				"metallicFactor":0,
				"metallicRoughnessTexture":{
					"index":0
				}
			}
		}
	],
	"meshes":[
		{
			"name":"Mesh.001",
			"primitives":[
				{
					"attributes":{
						"POSITION":0,
						"NORMAL":1,
						"TEXCOORD_0":2
					},
					"indices":3,
					"material":0
				}
			]
		},
		{
			"name":"Mesh",
			"primitives":[
				{
					"attributes":{
						"POSITION":4,
						"NORMAL":5,
						"TEXCOORD_0":6
					},
					"indices":7,
					"material":1
				}
			]
		},
		{
			"name":"Mesh.002",
			"primitives":[
				{
					"attributes":{
						"POSITION":8,
						"NORMAL":9,
						"TEXCOORD_0":10
					},
					"indices":11,
					"material":0
				}
			]
		}
	],
	"textures":[
		{
			"sampler":0,
			"source":0
		}
	],
	"images":[
		{
			"mimeType":"image/png",
			"name":"plastic_0010_roughness_1k",
			"uri":"textures/plastic_0010_roughness_1k.png"
		}
	],
	"accessors":[
		{
			"bufferView":0,
			"componentType":5126,
			"count":246,
			"max":[
				1.9262397289276123,
				1.8647217750549316,
				-14.751535415649414
			],
			"min":[
				-1.9491909742355347,
				-1.9198501110076904,
				-21.360332489013672
			],
			"type":"VEC3"
		},
		{
			"bufferView":1,
			"componentType":5126,
			"count":246,
			"type":"VEC3"
		},
		{
			"bufferView":2,
			"componentType":5126,
			"count":246,
			"type":"VEC2"
		},
		{
			"bufferView":3,
			"componentType":5123,
			"count":1149,
			"type":"SCALAR"
		},
		{
			"bufferView":4,
			"componentType":5126,
			"count":634,
			"max":[
				17.448989868164062,
				17.448989868164062,
				0.0022724734153598547
			],
			"min":[
				-17.448989868164062,
				-17.448989868164062,
				-25.017196655273438
			],
			"type":"VEC3"
		},
		{
			"bufferView":5,
			"componentType":5126,
			"count":634,
			"type":"VEC3"
		},
		{
			"bufferView":6,
			"componentType":5126,
			"count":634,
			"type":"VEC2"
		},
		{
			"bufferView":7,
			"componentType":5123,
			"count":3360,
			"type":"SCALAR"
		},
		{
			"bufferView":8,
			"componentType":5126,
			"count":765,
			"max":[
				8.64156436920166,
				8.64156436920166,
				-19.897132873535156
			],
			"min":[
				-8.64156436920166,
				-8.64156436920166,
				-102.4976577758789
			],
			"type":"VEC3"
		},
		{
			"bufferView":9,
			"componentType":5126,
			"count":765,
			"type":"VEC3"
		},
		{
			"bufferView":10,
			"componentType":5126,
			"count":765,
			"type":"VEC2"
		},
		{
			"bufferView":11,
			"componentType":5123,
			"count":2445,
			"type":"SCALAR"
		}
	],
	"bufferViews":[
		{
			"buffer":0,
			"byteLength":2952,
			"byteOffset":0,
			"target":34962
		},
		{
			"buffer":0,
			"byteLength":2952,
			"byteOffset":2952,
			"target":34962
		},
		{
			"buffer":0,
			"byteLength":1968,
			"byteOffset":5904,
			"target":34962
		},
		{
			"buffer":0,
			"byteLength":2298,
			"byteOffset":7872,
			"target":34963
		},
		{
			"buffer":0,
			"byteLength":7608,
			"byteOffset":10172,
			"target":34962
		},
		{
			"buffer":0,
			"byteLength":7608,
			"byteOffset":17780,
			"target":34962
		},
		{
			"buffer":0,
			"byteLength":5072,
			"byteOffset":25388,
			"target":34962
		},
		{
			"buffer":0,
			"byteLength":6720,
			"byteOffset":30460,
			"target":34963
		},
		{
			"buffer":0,
			"byteLength":9180,
			"byteOffset":37180,
			"target":34962
		},
		{
			"buffer":0,
			"byteLength":9180,
			"byteOffset":46360,
			"target":34962
		},
		{
			"buffer":0,
			"byteLength":6120,
			"byteOffset":55540,
			"target":34962
		},
		{
			"buffer":0,
			"byteLength":4890,
			"byteOffset":61660,
			"target":34963
		}
	],
	"samplers":[
		{
			"magFilter":9729,
			"minFilter":9987
		}
	],
	"buffers":[
		{
			"byteLength":66552,
			"uri":"lamp_colored6.bin"
		}
	]
}
