{
	"asset":{
		"generator":"Khronos glTF Blender I/O v4.2.70",
		"version":"2.0"
	},
	"scene":0,
	"scenes":[
		{
			"name":"Scene",
			"nodes":[
				0
			]
		}
	],
	"nodes":[
		{
			"mesh":0,
			"name":"lightbulb_led"
		}
	],
	"materials":[
		{
			"doubleSided":true,
			"name":"lightbulb_led",
			"normalTexture":{
				"index":0
			},
			"pbrMetallicRoughness":{
				"baseColorTexture":{
					"index":1
				},
				"metallicRoughnessTexture":{
					"index":2
				}
			}
		}
	],
	"meshes":[
		{
			"name":"Mesh.001",
			"primitives":[
				{
					"attributes":{
						"POSITION":0,
						"NORMAL":1,
						"TEXCOORD_0":2
					},
					"indices":3,
					"material":0
				}
			]
		}
	],
	"textures":[
		{
			"sampler":0,
			"source":0
		},
		{
			"sampler":0,
			"source":1
		},
		{
			"sampler":0,
			"source":2
		}
	],
	"images":[
		{
			"mimeType":"image/jpeg",
			"name":"lightbulb_led_nor_gl_2k",
			"uri":"textures/lightbulb_led_nor_gl_2k.jpg"
		},
		{
			"mimeType":"image/jpeg",
			"name":"lightbulb_led_diff_2k",
			"uri":"textures/lightbulb_led_diff_2k.jpg"
		},
		{
			"mimeType":"image/jpeg",
			"name":"lightbulb_led_arm_2k",
			"uri":"textures/lightbulb_led_arm_2k.jpg"
		}
	],
	"accessors":[
		{
			"bufferView":0,
			"componentType":5126,
			"count":3057,
			"max":[
				0.030723808333277702,
				0.08457458764314651,
				0.030723808333277702
			],
			"min":[
				-0.030723806470632553,
				-0.015676606446504593,
				-0.030723808333277702
			],
			"type":"VEC3"
		},
		{
			"bufferView":1,
			"componentType":5126,
			"count":3057,
			"type":"VEC3"
		},
		{
			"bufferView":2,
			"componentType":5126,
			"count":3057,
			"type":"VEC2"
		},
		{
			"bufferView":3,
			"componentType":5123,
			"count":13713,
			"type":"SCALAR"
		}
	],
	"bufferViews":[
		{
			"buffer":0,
			"byteLength":36684,
			"byteOffset":0,
			"target":34962
		},
		{
			"buffer":0,
			"byteLength":36684,
			"byteOffset":36684,
			"target":34962
		},
		{
			"buffer":0,
			"byteLength":24456,
			"byteOffset":73368,
			"target":34962
		},
		{
			"buffer":0,
			"byteLength":27426,
			"byteOffset":97824,
			"target":34963
		}
	],
	"samplers":[
		{
			"magFilter":9729,
			"minFilter":9987
		}
	],
	"buffers":[
		{
			"byteLength":125252,
			"uri":"bulb.bin"
		}
	]
}
