{
	"asset":{
		"generator":"Khronos glTF Blender I/O v4.2.70",
		"version":"2.0"
	},
	"extensionsUsed":[
		"KHR_materials_specular",
		"KHR_materials_ior",
		"KHR_texture_transform"
	],
	"extensionsRequired":[
		"KHR_texture_transform"
	],
	"scene":0,
	"scenes":[
		{
			"name":"Scene",
			"nodes":[
				0,
				1,
				2,
				3,
				4
			]
		}
	],
	"nodes":[
		{
			"mesh":0,
			"name":"Cylinder.019",
			"rotation":[
				-0.159530371427536,
				0.6836916208267212,
				-0.6888759732246399,
				0.18045982718467712
			],
			"translation":[
				-0.2912614941596985,
				0.3178142011165619,
				-1.1782082319259644
			]
		},
		{
			"mesh":1,
			"name":"Cylinder.017",
			"rotation":[
				0.018683165311813354,
				-0.018683163449168205,
				-0.7068598866462708,
				0.7068599462509155
			],
			"translation":[
				-0.2943699061870575,
				0.028526723384857178,
				-1.0762970447540283
			]
		},
		{
			"mesh":2,
			"name":"Cube.082",
			"rotation":[
				0,
				0.7999615669250488,
				0,
				0.6000513434410095
			],
			"translation":[
				-0.29436996579170227,
				0.09417068958282471,
				-1.0762962102890015
			]
		},
		{
			"mesh":3,
			"name":"Cube.077",
			"rotation":[
				0,
				0.999883770942688,
				0,
				0.015246614813804626
			],
			"translation":[
				-0.2889902591705322,
				0.5555113554000854,
				-1.0761326551437378
			]
		},
		{
			"mesh":4,
			"name":"Cube",
			"rotation":[
				0,
				0.999883770942688,
				0,
				0.015246614813804626
			],
			"translation":[
				-0.3193575441837311,
				0.5298805832862854,
				-1.077059030532837
			]
		}
	],
	"materials":[
		{
			"doubleSided":true,
			"name":"chrome_1",
			"pbrMetallicRoughness":{
				"baseColorFactor":[
					0.42998579144477844,
					0.42998579144477844,
					0.42998579144477844,
					1
				],
				"roughnessFactor":0.3509090840816498
			}
		},
		{
			"doubleSided":true,
			"name":"black_plastic",
			"pbrMetallicRoughness":{
				"baseColorFactor":[
					0.005296697840094566,
					0.005296697840094566,
					0.005296697840094566,
					1
				],
				"metallicFactor":0,
				"roughnessFactor":0.3418181538581848
			}
		},
		{
			"doubleSided":true,
			"name":"black_metal_2",
			"pbrMetallicRoughness":{
				"baseColorFactor":[
					0.042798273265361786,
					0.042798273265361786,
					0.042798273265361786,
					1
				],
				"roughnessFactor":0.5018181800842285
			}
		},
		{
			"doubleSided":true,
			"extensions":{
				"KHR_materials_specular":{
					"specularFactor":0
				},
				"KHR_materials_ior":{
					"ior":1.4500000476837158
				}
			},
			"name":"chair",
			"normalTexture":{
				"extensions":{
					"KHR_texture_transform":{
						"offset":[
							0,
							-6
						],
						"scale":[
							7,
							7
						]
					}
				},
				"index":0
			},
			"pbrMetallicRoughness":{
				"baseColorTexture":{
					"extensions":{
						"KHR_texture_transform":{
							"offset":[
								0,
								-6
							],
							"scale":[
								7,
								7
							]
						}
					},
					"index":1
				},
				"metallicFactor":0,
				"metallicRoughnessTexture":{
					"extensions":{
						"KHR_texture_transform":{
							"offset":[
								0,
								-6
							],
							"scale":[
								7,
								7
							]
						}
					},
					"index":2
				}
			}
		},
		{
			"doubleSided":true,
			"extensions":{
				"KHR_materials_specular":{
					"specularFactor":0
				},
				"KHR_materials_ior":{
					"ior":1.4500000476837158
				}
			},
			"name":"chair_2",
			"normalTexture":{
				"extensions":{
					"KHR_texture_transform":{
						"offset":[
							0,
							-2
						],
						"scale":[
							3,
							3
						]
					}
				},
				"index":3
			},
			"pbrMetallicRoughness":{
				"baseColorTexture":{
					"extensions":{
						"KHR_texture_transform":{
							"offset":[
								0,
								-2
							],
							"scale":[
								3,
								3
							]
						}
					},
					"index":4
				},
				"metallicFactor":0,
				"metallicRoughnessTexture":{
					"extensions":{
						"KHR_texture_transform":{
							"offset":[
								0,
								-2
							],
							"scale":[
								3,
								3
							]
						}
					},
					"index":5
				}
			}
		}
	],
	"meshes":[
		{
			"name":"Cylinder.021",
			"primitives":[
				{
					"attributes":{
						"POSITION":0,
						"NORMAL":1,
						"TEXCOORD_0":2
					},
					"indices":3,
					"material":0
				}
			]
		},
		{
			"name":"Cylinder.018",
			"primitives":[
				{
					"attributes":{
						"POSITION":4,
						"NORMAL":5,
						"TEXCOORD_0":6
					},
					"indices":7,
					"material":1
				}
			]
		},
		{
			"name":"Cube.081",
			"primitives":[
				{
					"attributes":{
						"POSITION":8,
						"NORMAL":9,
						"TEXCOORD_0":10
					},
					"indices":11,
					"material":2
				}
			]
		},
		{
			"name":"Cube.073",
			"primitives":[
				{
					"attributes":{
						"POSITION":12,
						"NORMAL":13,
						"TEXCOORD_0":14
					},
					"indices":15,
					"material":3
				}
			]
		},
		{
			"name":"Cube.001",
			"primitives":[
				{
					"attributes":{
						"POSITION":16,
						"NORMAL":17,
						"TEXCOORD_0":18
					},
					"indices":19,
					"material":4
				}
			]
		}
	],
	"textures":[
		{
			"sampler":0,
			"source":0
		},
		{
			"sampler":0,
			"source":1
		},
		{
			"sampler":0,
			"source":2
		},
		{
			"sampler":0,
			"source":0
		},
		{
			"sampler":0,
			"source":1
		},
		{
			"sampler":0,
			"source":2
		}
	],
	"images":[
		{
			"mimeType":"image/jpeg",
			"name":"4K-fabric_47_normal",
			"uri":"textures/4K-fabric_47_normal.jpg"
		},
		{
			"mimeType":"image/jpeg",
			"name":"4K-fabric_47_baseColor",
			"uri":"textures/4K-fabric_47_baseColor.jpg"
		},
		{
			"mimeType":"image/png",
			"name":"4K-fabric_47_roughness",
			"uri":"textures/4K-fabric_47_roughness.png"
		}
	],
	"accessors":[
		{
			"bufferView":0,
			"componentType":5126,
			"count":82,
			"max":[
				0.06976905465126038,
				0.12567868828773499,
				0.11121124029159546
			],
			"min":[
				-0.02310544066131115,
				-0.11928296834230423,
				-0.022695036605000496
			],
			"type":"VEC3"
		},
		{
			"bufferView":1,
			"componentType":5126,
			"count":82,
			"type":"VEC3"
		},
		{
			"bufferView":2,
			"componentType":5126,
			"count":82,
			"type":"VEC2"
		},
		{
			"bufferView":3,
			"componentType":5123,
			"count":273,
			"type":"SCALAR"
		},
		{
			"bufferView":4,
			"componentType":5126,
			"count":1996,
			"max":[
				0.028584612533450127,
				0.29062286019325256,
				0.3058309257030487
			],
			"min":[
				-0.028550898656249046,
				-0.29058775305747986,
				-0.24952666461467743
			],
			"type":"VEC3"
		},
		{
			"bufferView":5,
			"componentType":5126,
			"count":1996,
			"type":"VEC3"
		},
		{
			"bufferView":6,
			"componentType":5126,
			"count":1996,
			"type":"VEC2"
		},
		{
			"bufferView":7,
			"componentType":5123,
			"count":5922,
			"type":"SCALAR"
		},
		{
			"bufferView":8,
			"componentType":5126,
			"count":268,
			"max":[
				0.28080645203590393,
				0.23927253484725952,
				0.24073007702827454
			],
			"min":[
				-0.2798798978328705,
				-0.036802373826503754,
				-0.29408323764801025
			],
			"type":"VEC3"
		},
		{
			"bufferView":9,
			"componentType":5126,
			"count":268,
			"type":"VEC3"
		},
		{
			"bufferView":10,
			"componentType":5126,
			"count":268,
			"type":"VEC2"
		},
		{
			"bufferView":11,
			"componentType":5123,
			"count":840,
			"type":"SCALAR"
		},
		{
			"bufferView":12,
			"componentType":5126,
			"count":425,
			"max":[
				0.25528377294540405,
				0.2791796624660492,
				0.2698676884174347
			],
			"min":[
				-0.2678927183151245,
				-0.2231551557779312,
				-0.26995849609375
			],
			"type":"VEC3"
		},
		{
			"bufferView":13,
			"componentType":5126,
			"count":425,
			"type":"VEC3"
		},
		{
			"bufferView":14,
			"componentType":5126,
			"count":425,
			"type":"VEC2"
		},
		{
			"bufferView":15,
			"componentType":5123,
			"count":1938,
			"type":"SCALAR"
		},
		{
			"bufferView":16,
			"componentType":5126,
			"count":164,
			"max":[
				0.2304973602294922,
				-0.08431501686573029,
				0.1983742117881775
			],
			"min":[
				-0.0942220613360405,
				-0.15683813393115997,
				-0.1985778510570526
			],
			"type":"VEC3"
		},
		{
			"bufferView":17,
			"componentType":5126,
			"count":164,
			"type":"VEC3"
		},
		{
			"bufferView":18,
			"componentType":5126,
			"count":164,
			"type":"VEC2"
		},
		{
			"bufferView":19,
			"componentType":5123,
			"count":816,
			"type":"SCALAR"
		}
	],
	"bufferViews":[
		{
			"buffer":0,
			"byteLength":984,
			"byteOffset":0,
			"target":34962
		},
		{
			"buffer":0,
			"byteLength":984,
			"byteOffset":984,
			"target":34962
		},
		{
			"buffer":0,
			"byteLength":656,
			"byteOffset":1968,
			"target":34962
		},
		{
			"buffer":0,
			"byteLength":546,
			"byteOffset":2624,
			"target":34963
		},
		{
			"buffer":0,
			"byteLength":23952,
			"byteOffset":3172,
			"target":34962
		},
		{
			"buffer":0,
			"byteLength":23952,
			"byteOffset":27124,
			"target":34962
		},
		{
			"buffer":0,
			"byteLength":15968,
			"byteOffset":51076,
			"target":34962
		},
		{
			"buffer":0,
			"byteLength":11844,
			"byteOffset":67044,
			"target":34963
		},
		{
			"buffer":0,
			"byteLength":3216,
			"byteOffset":78888,
			"target":34962
		},
		{
			"buffer":0,
			"byteLength":3216,
			"byteOffset":82104,
			"target":34962
		},
		{
			"buffer":0,
			"byteLength":2144,
			"byteOffset":85320,
			"target":34962
		},
		{
			"buffer":0,
			"byteLength":1680,
			"byteOffset":87464,
			"target":34963
		},
		{
			"buffer":0,
			"byteLength":5100,
			"byteOffset":89144,
			"target":34962
		},
		{
			"buffer":0,
			"byteLength":5100,
			"byteOffset":94244,
			"target":34962
		},
		{
			"buffer":0,
			"byteLength":3400,
			"byteOffset":99344,
			"target":34962
		},
		{
			"buffer":0,
			"byteLength":3876,
			"byteOffset":102744,
			"target":34963
		},
		{
			"buffer":0,
			"byteLength":1968,
			"byteOffset":106620,
			"target":34962
		},
		{
			"buffer":0,
			"byteLength":1968,
			"byteOffset":108588,
			"target":34962
		},
		{
			"buffer":0,
			"byteLength":1312,
			"byteOffset":110556,
			"target":34962
		},
		{
			"buffer":0,
			"byteLength":1632,
			"byteOffset":111868,
			"target":34963
		}
	],
	"samplers":[
		{
			"magFilter":9729,
			"minFilter":9987
		}
	],
	"buffers":[
		{
			"byteLength":113500,
			"uri":"uploads_files_5045637_chair.bin"
		}
	]
}
