{
	"asset":{
		"generator":"Khronos glTF Blender I/O v4.2.70",
		"version":"2.0"
	},
	"scene":0,
	"scenes":[
		{
			"name":"Scene",
			"nodes":[
				0,
				1,
				2,
				3,
				4
			]
		}
	],
	"nodes":[
		{
			"mesh":0,
			"name":"Cube",
			"translation":[
				-0.9494209289550781,
				0.34479326009750366,
				0.47261369228363037
			]
		},
		{
			"mesh":1,
			"name":"Plane.002",
			"scale":[
				1.0430735349655151,
				0.6278844475746155,
				1
			],
			"translation":[
				-11.075919151306152,
				-0.45194441080093384,
				0.3566182851791382
			]
		},
		{
			"mesh":2,
			"name":"Plane.006",
			"rotation":[
				-0.7071068286895752,
				0,
				0,
				0.7071068286895752
			],
			"translation":[
				-11.284919738769531,
				-5.705352783203125,
				2.7321829795837402
			]
		},
		{
			"mesh":3,
			"name":"Plane.009",
			"rotation":[
				-0.5,
				-0.5,
				0.5,
				0.5000000596046448
			],
			"scale":[
				6.906257629394531,
				1,
				3.368306875228882
			],
			"translation":[
				8.327462196350098,
				0.5492653250694275,
				2.727832317352295
			]
		},
		{
			"mesh":4,
			"name":"Cube.007",
			"rotation":[
				0,
				-0.14545509219169617,
				0,
				0.9893648624420166
			],
			"translation":[
				-10.807082176208496,
				4.4796223640441895,
				0.5972074270248413
			]
		}
	],
	"materials":[
		{
			"doubleSided":true,
			"name":"Material",
			"normalTexture":{
				"index":0
			},
			"pbrMetallicRoughness":{
				"baseColorTexture":{
					"index":1
				},
				"metallicFactor":0,
				"metallicRoughnessTexture":{
					"index":2
				}
			}
		},
		{
			"doubleSided":true,
			"name":"Material.004",
			"normalTexture":{
				"index":3
			},
			"pbrMetallicRoughness":{
				"baseColorTexture":{
					"index":4
				},
				"metallicRoughnessTexture":{
					"index":5
				}
			}
		},
		{
			"doubleSided":true,
			"name":"Material.003",
			"normalTexture":{
				"index":6
			},
			"pbrMetallicRoughness":{
				"baseColorTexture":{
					"index":7
				},
				"metallicFactor":0,
				"metallicRoughnessTexture":{
					"index":8
				}
			}
		},
		{
			"doubleSided":true,
			"name":"Material.008",
			"pbrMetallicRoughness":{
				"baseColorFactor":[
					0.30083730816841125,
					0.15289922058582306,
					0.06291492283344269,
					1
				],
				"metallicFactor":0,
				"roughnessFactor":0.5
			}
		}
	],
	"meshes":[
		{
			"name":"Cube",
			"primitives":[
				{
					"attributes":{
						"POSITION":0,
						"NORMAL":1,
						"TEXCOORD_0":2
					},
					"indices":3,
					"material":0
				}
			]
		},
		{
			"name":"Plane.002",
			"primitives":[
				{
					"attributes":{
						"POSITION":4,
						"NORMAL":5,
						"TEXCOORD_0":6
					},
					"indices":7,
					"material":0
				}
			]
		},
		{
			"name":"Plane.006",
			"primitives":[
				{
					"attributes":{
						"POSITION":8,
						"NORMAL":9,
						"TEXCOORD_0":10
					},
					"indices":11,
					"material":1
				}
			]
		},
		{
			"name":"Plane.032",
			"primitives":[
				{
					"attributes":{
						"POSITION":12,
						"NORMAL":13,
						"TEXCOORD_0":14
					},
					"indices":15,
					"material":2
				}
			]
		},
		{
			"name":"Cube.016",
			"primitives":[
				{
					"attributes":{
						"POSITION":16,
						"NORMAL":17,
						"TEXCOORD_0":18
					},
					"indices":19,
					"material":3
				}
			]
		}
	],
	"textures":[
		{
			"sampler":0,
			"source":0
		},
		{
			"sampler":0,
			"source":1
		},
		{
			"sampler":0,
			"source":2
		},
		{
			"sampler":0,
			"source":3
		},
		{
			"sampler":0,
			"source":4
		},
		{
			"sampler":0,
			"source":5
		},
		{
			"sampler":0,
			"source":0
		},
		{
			"sampler":0,
			"source":1
		},
		{
			"sampler":0,
			"source":2
		},
		{
			"sampler":0,
			"source":6
		}
	],
	"images":[
		{
			"mimeType":"image/jpeg",
			"name":"wood_0013_normal_directx_2k",
			"uri":"textures/wood_0013_normal_directx_2k.jpg"
		},
		{
			"mimeType":"image/jpeg",
			"name":"wood_0013_color_2k",
			"uri":"textures/wood_0013_color_2k.jpg"
		},
		{
			"mimeType":"image/jpeg",
			"name":"wood_0013_roughness_2k",
			"uri":"textures/wood_0013_roughness_2k.jpg"
		},
		{
			"mimeType":"image/jpeg",
			"name":"metal_0062_normal_directx_2k",
			"uri":"textures/metal_0062_normal_directx_2k.jpg"
		},
		{
			"mimeType":"image/jpeg",
			"name":"metal_0062_color_2k",
			"uri":"textures/metal_0062_color_2k.jpg"
		},
		{
			"mimeType":"image/jpeg",
			"name":"metal_0062_metallic_2k-metal_0062_roughness_2k",
			"uri":"textures/metal_0062_metallic_2k-metal_0062_roughness_2k.jpg"
		},
		{
			"mimeType":"image/jpeg",
			"name":"metal_0062_roughness_2k",
			"uri":"textures/metal_0062_roughness_2k.jpg"
		},
		{
			"mimeType":"image/jpeg",
			"name":"Image",
			"uri":"textures/Image.jpg"
		}
	],
	"accessors":[
		{
			"bufferView":0,
			"componentType":5126,
			"count":1746,
			"max":[
				12.758514404296875,
				7.183261394500732,
				2.1916751861572266
			],
			"min":[
				-12.758514404296875,
				-7.183260917663574,
				-2.7824580669403076
			],
			"type":"VEC3"
		},
		{
			"bufferView":1,
			"componentType":5126,
			"count":1746,
			"type":"VEC3"
		},
		{
			"bufferView":2,
			"componentType":5126,
			"count":1746,
			"type":"VEC2"
		},
		{
			"bufferView":3,
			"componentType":5123,
			"count":5262,
			"type":"SCALAR"
		},
		{
			"bufferView":4,
			"componentType":5126,
			"count":297,
			"max":[
				2.352808713912964,
				12.74614143371582,
				2.2829158306121826
			],
			"min":[
				-2.352808713912964,
				-0.4657430350780487,
				-2.2829158306121826
			],
			"type":"VEC3"
		},
		{
			"bufferView":5,
			"componentType":5126,
			"count":297,
			"type":"VEC3"
		},
		{
			"bufferView":6,
			"componentType":5126,
			"count":297,
			"type":"VEC2"
		},
		{
			"bufferView":7,
			"componentType":5123,
			"count":1746,
			"type":"SCALAR"
		},
		{
			"bufferView":8,
			"componentType":5126,
			"count":491,
			"max":[
				21.597488403320312,
				0.13395418226718903,
				10.349203109741211
			],
			"min":[
				-0.8091732859611511,
				-0.08591922372579575,
				-0.03695887699723244
			],
			"type":"VEC3"
		},
		{
			"bufferView":9,
			"componentType":5126,
			"count":491,
			"type":"VEC3"
		},
		{
			"bufferView":10,
			"componentType":5126,
			"count":491,
			"type":"VEC2"
		},
		{
			"bufferView":11,
			"componentType":5123,
			"count":747,
			"type":"SCALAR"
		},
		{
			"bufferView":12,
			"componentType":5126,
			"count":445,
			"max":[
				1,
				2.083322525024414,
				6.5433173179626465
			],
			"min":[
				-1,
				-0.08591949939727783,
				-1
			],
			"type":"VEC3"
		},
		{
			"bufferView":13,
			"componentType":5126,
			"count":445,
			"type":"VEC3"
		},
		{
			"bufferView":14,
			"componentType":5126,
			"count":445,
			"type":"VEC2"
		},
		{
			"bufferView":15,
			"componentType":5123,
			"count":780,
			"type":"SCALAR"
		},
		{
			"bufferView":16,
			"componentType":5126,
			"count":560,
			"max":[
				2.060575246810913,
				1,
				1.4904584884643555
			],
			"min":[
				-2.060575246810913,
				-1,
				-1.4904584884643555
			],
			"type":"VEC3"
		},
		{
			"bufferView":17,
			"componentType":5126,
			"count":560,
			"type":"VEC3"
		},
		{
			"bufferView":18,
			"componentType":5126,
			"count":560,
			"type":"VEC2"
		},
		{
			"bufferView":19,
			"componentType":5123,
			"count":2292,
			"type":"SCALAR"
		}
	],
	"bufferViews":[
		{
			"buffer":0,
			"byteLength":20952,
			"byteOffset":0,
			"target":34962
		},
		{
			"buffer":0,
			"byteLength":20952,
			"byteOffset":20952,
			"target":34962
		},
		{
			"buffer":0,
			"byteLength":13968,
			"byteOffset":41904,
			"target":34962
		},
		{
			"buffer":0,
			"byteLength":10524,
			"byteOffset":55872,
			"target":34963
		},
		{
			"buffer":0,
			"byteLength":3564,
			"byteOffset":66396,
			"target":34962
		},
		{
			"buffer":0,
			"byteLength":3564,
			"byteOffset":69960,
			"target":34962
		},
		{
			"buffer":0,
			"byteLength":2376,
			"byteOffset":73524,
			"target":34962
		},
		{
			"buffer":0,
			"byteLength":3492,
			"byteOffset":75900,
			"target":34963
		},
		{
			"buffer":0,
			"byteLength":5892,
			"byteOffset":79392,
			"target":34962
		},
		{
			"buffer":0,
			"byteLength":5892,
			"byteOffset":85284,
			"target":34962
		},
		{
			"buffer":0,
			"byteLength":3928,
			"byteOffset":91176,
			"target":34962
		},
		{
			"buffer":0,
			"byteLength":1494,
			"byteOffset":95104,
			"target":34963
		},
		{
			"buffer":0,
			"byteLength":5340,
			"byteOffset":96600,
			"target":34962
		},
		{
			"buffer":0,
			"byteLength":5340,
			"byteOffset":101940,
			"target":34962
		},
		{
			"buffer":0,
			"byteLength":3560,
			"byteOffset":107280,
			"target":34962
		},
		{
			"buffer":0,
			"byteLength":1560,
			"byteOffset":110840,
			"target":34963
		},
		{
			"buffer":0,
			"byteLength":6720,
			"byteOffset":112400,
			"target":34962
		},
		{
			"buffer":0,
			"byteLength":6720,
			"byteOffset":119120,
			"target":34962
		},
		{
			"buffer":0,
			"byteLength":4480,
			"byteOffset":125840,
			"target":34962
		},
		{
			"buffer":0,
			"byteLength":4584,
			"byteOffset":130320,
			"target":34963
		}
	],
	"samplers":[
		{
			"magFilter":9729,
			"minFilter":9987
		}
	],
	"buffers":[
		{
			"byteLength":134904,
			"uri":"uploads_files_4016476_cupbo222ard2.bin"
		}
	]
}
