{
	"asset":{
		"generator":"Khronos glTF Blender I/O v4.2.70",
		"version":"2.0"
	},
	"scene":0,
	"scenes":[
		{
			"name":"Scene",
			"nodes":[
				0,
				1
			]
		}
	],
	"nodes":[
		{
			"mesh":0,
			"name":"Cube",
			"translation":[
				-0.9494209289550781,
				0.34479326009750366,
				0.47261369228363037
			]
		},
		{
			"mesh":1,
			"name":"Plane.002",
			"scale":[
				1.0430735349655151,
				0.6278844475746155,
				1
			],
			"translation":[
				-11.075919151306152,
				-0.45194441080093384,
				0.3566182851791382
			]
		}
	],
	"meshes":[
		{
			"name":"Cube.001",
			"primitives":[
				{
					"attributes":{
						"POSITION":0,
						"NORMAL":1
					},
					"indices":2
				}
			]
		},
		{
			"name":"Plane.002",
			"primitives":[
				{
					"attributes":{
						"POSITION":3,
						"NORMAL":4
					},
					"indices":5
				}
			]
		}
	],
	"accessors":[
		{
			"bufferView":0,
			"componentType":5126,
			"count":124,
			"max":[
				12.758379936218262,
				7.183222770690918,
				2.191657304763794
			],
			"min":[
				-12.757670402526855,
				-7.182764053344727,
				-2.782456159591675
			],
			"type":"VEC3"
		},
		{
			"bufferView":1,
			"componentType":5126,
			"count":124,
			"type":"VEC3"
		},
		{
			"bufferView":2,
			"componentType":5123,
			"count":132,
			"type":"SCALAR"
		},
		{
			"bufferView":3,
			"componentType":5126,
			"count":178,
			"max":[
				2.3543787002563477,
				12.744171142578125,
				2.2819554805755615
			],
			"min":[
				-2.3478920459747314,
				-0.46566545963287354,
				-2.28311824798584
			],
			"type":"VEC3"
		},
		{
			"bufferView":4,
			"componentType":5126,
			"count":178,
			"type":"VEC3"
		},
		{
			"bufferView":5,
			"componentType":5123,
			"count":180,
			"type":"SCALAR"
		}
	],
	"bufferViews":[
		{
			"buffer":0,
			"byteLength":1488,
			"byteOffset":0,
			"target":34962
		},
		{
			"buffer":0,
			"byteLength":1488,
			"byteOffset":1488,
			"target":34962
		},
		{
			"buffer":0,
			"byteLength":264,
			"byteOffset":2976,
			"target":34963
		},
		{
			"buffer":0,
			"byteLength":2136,
			"byteOffset":3240,
			"target":34962
		},
		{
			"buffer":0,
			"byteLength":2136,
			"byteOffset":5376,
			"target":34962
		},
		{
			"buffer":0,
			"byteLength":360,
			"byteOffset":7512,
			"target":34963
		}
	],
	"buffers":[
		{
			"byteLength":7872,
			"uri":"closet_simple.bin"
		}
	]
}
