{
  "asset": {
    "generator": "Khronos glTF Blender I/O v3.3.32",
    "version": "2.0"
  },
  "scene": 0,
  "scenes": [
    {
      "name": "Scene",
      "nodes": [
        0
      ]
    }
  ],
  "nodes": [
    {
      "mesh": 0,
      "name": "plastic_bottle_gallon"
    }
  ],
  "materials": [
    {
      "doubleSided": true,
      "name": "plastic_bottle_gallon",
      "normalTexture": {
        "index": 0
      },
      "pbrMetallicRoughness": {
        "baseColorTexture": {
          "index": 1
        },
        "metallicFactor": 0,
        "metallicRoughnessTexture": {
          "index": 2
        }
      }
    }
  ],
  "meshes": [
    {
      "name": "plastic_gallon_01",
      "primitives": [
        {
          "attributes": {
            "POSITION": 0,
            "NORMAL": 1,
            "TEXCOORD_0": 2
          },
          "indices": 3,
          "material": 0
        }
      ]
    }
  ],
  "textures": [
    {
      "sampler": 0,
      "source": 0
    },
    {
      "sampler": 0,
      "source": 1
    },
    {
      "sampler": 0,
      "source": 2
    }
  ],
  "images": [
    {
      "mimeType": "image/jpeg",
      "name": "plastic_bottle_gallon_nor_gl",
      "uri": "textures/plastic_bottle_gallon_nor_gl_1k.jpg"
    },
    {
      "mimeType": "image/jpeg",
      "name": "plastic_bottle_gallon_diff",
      "uri": "textures/plastic_bottle_gallon_diff_1k.jpg"
    },
    {
      "mimeType": "image/jpeg",
      "name": "plastic_bottle_gallon_rough",
      "uri": "textures/plastic_bottle_gallon_arm_1k.jpg"
    }
  ],
  "accessors": [
    {
      "bufferView": 0,
      "componentType": 5126,
      "count": 7227,
      "max": [
        0.07843010127544403,
        0.27436771988868713,
        0.06130744516849518
      ],
      "min": [
        -0.08785029500722885,
        -0.00012503121979534626,
        -0.06504381448030472
      ],
      "type": "VEC3"
    },
    {
      "bufferView": 1,
      "componentType": 5126,
      "count": 7227,
      "type": "VEC3"
    },
    {
      "bufferView": 2,
      "componentType": 5126,
      "count": 7227,
      "type": "VEC2"
    },
    {
      "bufferView": 3,
      "componentType": 5123,
      "count": 41184,
      "type": "SCALAR"
    }
  ],
  "bufferViews": [
    {
      "buffer": 0,
      "byteLength": 86724,
      "byteOffset": 0,
      "target": 34962
    },
    {
      "buffer": 0,
      "byteLength": 86724,
      "byteOffset": 86724,
      "target": 34962
    },
    {
      "buffer": 0,
      "byteLength": 57816,
      "byteOffset": 173448,
      "target": 34962
    },
    {
      "buffer": 0,
      "byteLength": 82368,
      "byteOffset": 231264,
      "target": 34963
    }
  ],
  "samplers": [
    {
      "magFilter": 9729,
      "minFilter": 9987
    }
  ],
  "buffers": [
    {
      "byteLength": 313632,
      "uri": "plastic_bottle_gallon.bin"
    }
  ]
}